<svg xmlns="http://www.w3.org/2000/svg" width="20" height="20" viewBox="0 0 20 20">
  <path id="形状_1" d="M2.891,6.992a1.947,1.947,0,0,1,1.328.273,2.9,2.9,0,0,1,1.094,3.125A4.569,4.569,0,0,1,3.75,12.734c-0.2.171-.485,0.328-0.7,0.508a0.793,0.793,0,0,0,.82.625,0.767,0.767,0,0,1-.2.2,0.921,0.921,0,0,1-1.406-.625,1.9,1.9,0,0,1-1.445-.43,2.217,2.217,0,0,1,.156-2.891A0.714,0.714,0,0,1,.664,9.844,1.406,1.406,0,0,1,.547,8.867,2.529,2.529,0,0,1,1.953,7.3,2.015,2.015,0,0,1,2.891,6.992Zm13.2,0c0.691-.077,3.6.043,3.516,1.6a3.551,3.551,0,0,1-2.149,2.773,1.358,1.358,0,0,1-1.875-.508l-0.039.078c-0.186.275-.369,0.584-0.547,0.859a5.3,5.3,0,0,1-1.289,1.641,0.751,0.751,0,0,1-.781-0.273,1.141,1.141,0,0,1,.234-0.781c0.107-.192.27-0.488,0.351-0.625a41.471,41.471,0,0,1,2.5-3.828c0.221-.154,1.023.213,0.9,0.664a3.379,3.379,0,0,1-.312.625c-0.26.453-.606,1-0.859,1.445L15.82,10.7c0.893,0.174,2.1-.8,2.734-1.523a2.1,2.1,0,0,0,.43-0.664,0.646,0.646,0,0,0-.352-0.547A3.247,3.247,0,0,0,17.3,7.656a6.8,6.8,0,0,0-1.133.039,6.835,6.835,0,0,0-2.227.82,3.9,3.9,0,0,0-1.25.977,0.621,0.621,0,0,0-.117.234,0.494,0.494,0,0,0,.039.2,0.754,0.754,0,0,1-.43-0.312,1.034,1.034,0,0,1-.234-0.469A1.071,1.071,0,0,1,12.3,8.32a7.828,7.828,0,0,1,2.617-1.172A11.278,11.278,0,0,1,16.094,6.992ZM9.883,7.07a1.279,1.279,0,0,1,1.562.742,1.93,1.93,0,0,1-1.172,1.875,1,1,0,0,1-.664-0.039,0.443,0.443,0,0,1-.2-0.312,0.767,0.767,0,0,0,.234.039,2.257,2.257,0,0,0,.625-0.312,1.835,1.835,0,0,0,.938-1.25,0.35,0.35,0,0,0-.351-0.2,2.211,2.211,0,0,0-1.367.508,10.918,10.918,0,0,0-1.814,2.219c-0.587.917-.942,2.028-0.725,2.273A2.6,2.6,0,0,0,8.789,12.3c0.847-.418,1.475-1.138,1.172-1.68a0.768,0.768,0,0,1,.586.352,1.471,1.471,0,0,1-.469,1.328,3.842,3.842,0,0,1-1.367.938,2.5,2.5,0,0,1-1.367.156A1.978,1.978,0,0,1,6.055,12.3C5.217,10.492,7.409,8.219,8.4,7.617A3.316,3.316,0,0,1,9.883,7.07ZM1.25,9.18a1.487,1.487,0,0,0-.234.781H1.055c0.37-.407.9-1.2,1.406-1.094a0.854,0.854,0,0,1,.625.547C2.7,10.061.861,11.606,1.328,12.773a1.013,1.013,0,0,1,1.094-.351,0.835,0.835,0,0,1,.391.313,6.621,6.621,0,0,0,.7-0.625,4.134,4.134,0,0,0,1.211-1.992,2.6,2.6,0,0,0,0-1.719A1.088,1.088,0,0,0,3.6,7.773a3.186,3.186,0,0,0-1.042.284A3.091,3.091,0,0,0,1.25,9.18Zm0.391,3.555a0.324,0.324,0,0,0-.156.156,0.114,0.114,0,0,0,.039.156H2.07a0.413,0.413,0,0,0-.2-0.274A0.557,0.557,0,0,0,1.641,12.734Z" stroke="white" stroke-opacity="0.6" stroke-width="1.4" stroke-linecap="round" stroke-linejoin="round"/>
  <path id="矩形_1" d="M0.7,14.609H19.492v0.351H0.7V14.609Z" stroke="white" stroke-opacity="0.5" stroke-width=".5" stroke-linecap="round" stroke-linejoin="round"/>
</svg>
