<svg xmlns="http://www.w3.org/2000/svg" width="20" height="20" viewBox="0 0 512 512">
  <path id="形状_1" class="cls-1" d="M74,179c10.076-.763,22.489-0.986,34,7,21.721,15.07,37.715,47.775,28,80-8.486,28.148-21.645,44.362-40,60-5.133,4.374-12.422,8.4-18,13,3.672,8.684,9.7,17.854,21,16a19.659,19.659,0,0,1-5,5c-15,9.853-31,.674-36-16-15.915.557-29.01-2.9-37-11-17.754-18-15.083-52.806,4-74-4.268-2.6-6.039-3.637-8-7-4.578-7.853-4.631-18.148-3-25,4.059-17.049,17.926-30.667,36-40C56.327,183.733,61.677,179.933,74,179Zm338,0c17.689-1.965,92.259,1.09,90,41-1.829,32.323-30.389,60.9-55,71-18.85,7.738-42.436,4.361-48-13l-1,2c-4.765,7.035-9.446,14.956-14,22-9.89,15.3-20.444,34.712-33,42-4.605,2.673-18.129-1.64-20-7-1.895-5.431,2.125-13.017,6-20,2.729-4.918,6.9-12.49,9-16,19.885-33.265,58.349-94.069,64-98s26.194,5.453,23,17c-1.121,4.053-4.408,9.725-8,16-6.642,11.6-15.511,25.536-22,37l2,1c22.866,4.454,53.682-20.52,70-39,6.521-7.386,10.333-14.265,11-17,0.771-3.164-2.542-10.261-9-14-8.378-4.851-21.131-7.147-34-8-7.239-.48-22.668-0.1-29,1-15.926,2.78-33.388,7.971-57,21-12.717,7.017-25.862,16.108-32,25-0.9,1.307-2.653,3.677-3,6-0.284,1.9.716,3.768,1,5-5.116-1.221-8.386-4.52-11-8-2.565-3.415-5.58-7.723-6-12-0.74-7.548,3.347-15.407,9-21,15.594-15.43,61.226-28.649,67-30S394.311,180.965,412,179Zm-159,2c17.946-2.466,36.166,2.868,40,19,4.655,19.588-14.558,41.075-30,48-5.769,2.587-15.9-.117-17-1-4.026-3.247-4.157-4.763-5-8,1.735,0.42,4.125,1.2,6,1,4.017-.424,11.843-5.434,16-8,15.11-9.327,25.561-26.124,24-32,0.3,1.128-.576-4.491-9-5-7.059-.427-19.746,1.858-35,13-8.591,6.275-30.047,31.214-46.447,56.812C181.521,288.275,172.439,316.725,178,323c3.819,4.31,28.032,1.367,47-8,21.686-10.709,37.756-29.137,30-43,5.436,0.105,11.941,3.941,15,9,1.56,2.58,2.32,18.813-12,34-7.875,8.351-22.057,19.653-35,24-12.089,4.06-23.932,6.671-35,4-14.1-3.4-26.592-14.141-33-28-21.458-46.407,34.661-104.6,60-120C226.583,187.96,235.054,183.466,253,181ZM32,235a38.068,38.068,0,0,0-6,20h1c9.477-10.414,23.156-30.594,36-28,8.162,1.961,12.536,6.372,16,14-9.84,16.551-56.96,56.114-45,86,12.09-10.339,19.939-12.281,28-9,4.317,1.757,6.456,3.526,10,8a169.576,169.576,0,0,0,18-16c13.986-14.381,24.981-27.717,31-51,5.388-20.842,4.193-35.264,0-44-5.777-12.037-16.683-16.946-28.878-16.009a81.542,81.542,0,0,0-26.682,7.265A79.123,79.123,0,0,0,32,235Zm10,91c-1.152.271-3.274,2.293-4,4-1.194,2.806.86,3.86,1,4H53c-1-3.654-2.9-5.936-5-7C45.443,325.7,41.751,326.059,42,326Z" stroke="white" stroke-opacity="0.5" stroke-width="1.5" stroke-linecap="round" stroke-linejoin="round"/>
  <rect id="矩形_1" class="cls-2" x="18" y="374" width="481" height="9" stroke="white" stroke-opacity="0.5" stroke-width="1.5" stroke-linecap="round" stroke-linejoin="round"/>
</svg>
